<svg width="30" height="18" viewBox="0 0 30 18" fill="none" xmlns="http://www.w3.org/2000/svg">
<g id="Layer_1" clip-path="url(#clip0_203_407)">
<path id="Vector" d="M15.9995 14.3916H13.9995V16.1959H15.9995V14.3916Z" fill="black"/>
<path id="Vector_2" d="M17.9995 12.5872H15.9995V14.3914H17.9995V12.5872Z" fill="black"/>
<path id="Vector_3" d="M13.9995 12.5872H11.9995V14.3914H13.9995V12.5872Z" fill="black"/>
<path id="Vector_4" d="M20.0004 10.7825H18.0005V12.5867H20.0004V10.7825Z" fill="black"/>
<path id="Vector_5" d="M12 10.7825H10V12.5867H12V10.7825Z" fill="black"/>
<path id="Vector_6" d="M22 8.97803H20V10.7823H22V8.97803Z" fill="black"/>
<path id="Vector_7" d="M9.99996 8.97803H8V10.7823H9.99996V8.97803Z" fill="black"/>
<path id="Vector_8" d="M24 7.17383H22V8.97808H24V7.17383Z" fill="black"/>
<path id="Vector_9" d="M7.99996 7.17383H6V8.97808H7.99996V7.17383Z" fill="black"/>
<path id="Vector_10" d="M15.9995 16.1958H13.9995V18.0001H15.9995V16.1958Z" fill="white"/>
<path id="Vector_11" d="M17.9995 14.3916H15.9995V16.1959H17.9995V14.3916Z" fill="white"/>
<path id="Vector_12" d="M13.9995 14.3916H11.9995V16.1959H13.9995V14.3916Z" fill="white"/>
<path id="Vector_13" d="M20.0004 12.5872H18.0005V14.3914H20.0004V12.5872Z" fill="white"/>
<path id="Vector_14" d="M15.9995 12.5872H13.9995V14.3914H15.9995V12.5872Z" fill="white"/>
<path id="Vector_15" d="M12 12.5872H10V14.3914H12V12.5872Z" fill="white"/>
<path id="Vector_16" d="M22 10.7825H20V12.5867H22V10.7825Z" fill="white"/>
<path id="Vector_17" d="M18.0001 10.7824H20.0001V8.97818H22V7.17393H24V5.36968H18.0001V3.56543H15.9995V12.5873H18.0001V10.7824Z" fill="white"/>
<path id="Vector_18" d="M9.99996 10.7825H8V12.5867H9.99996V10.7825Z" fill="white"/>
<path id="Vector_19" d="M24 8.97803H22V10.7823H24V8.97803Z" fill="white"/>
<path id="Vector_20" d="M7.99996 8.97803H6V10.7823H7.99996V8.97803Z" fill="white"/>
<path id="Vector_21" d="M26 7.17383H24V8.97808H26V7.17383Z" fill="white"/>
<path id="Vector_22" d="M7.99996 8.97813H9.99992V10.7824H11.9999V12.5872H13.9998V5.36963H6V7.17388H7.99996V8.97813Z" fill="white"/>
<path id="Vector_23" d="M5.99996 7.17383H4V8.97808H5.99996V7.17383Z" fill="white"/>
<path id="Vector_24" d="M28 5.36963H26V7.17388H28V5.36963Z" fill="white"/>
<path id="Vector_25" d="M3.99996 5.36963H2V7.17388H3.99996V5.36963Z" fill="white"/>
<path id="Vector_26" d="M28 5.3696H30V1.7605H28.0087L28 5.3696Z" fill="white"/>
<path id="Vector_27" d="M1.99996 1.7605H0V5.369H1.99996V1.7605Z" fill="white"/>
<path id="Vector_28" d="M28.0088 0H4V1.79228V1.80425V3.59653H5.99996V1.80425H11.9998V3.56539H15.9998V1.80425H28.0088V0Z" fill="white"/>
<g id="Group">
<path id="Vector_29" d="M15.9995 1.77319V3.56547H18.0001V5.36972H24V7.17397H25.9999V5.36972H27.9999L28.0086 1.77319H15.9995Z" fill="black"/>
<path id="Vector_30" d="M11.9998 1.77319H7.99988H5.99992V3.56547H3.99996V1.77319H2V5.36972H3.99996V7.17397H5.99992V5.36972H13.9998V12.5873H15.9997V3.56547H11.9998V1.77319Z" fill="black"/>
</g>
</g>
<defs>
<clipPath id="clip0_203_407">
<rect width="30" height="18" fill="white"/>
</clipPath>
</defs>
</svg>
