<svg width="32" height="24" viewBox="0 0 32 24" fill="none" xmlns="http://www.w3.org/2000/svg">
<g id="discord">
<path id="Vector" d="M23.8378 24H23.734C23.6099 23.8166 23.4819 23.6371 23.3636 23.4499C22.9059 22.7222 22.452 21.9916 22.005 21.2754C22.9524 20.827 23.8436 20.4046 24.7357 19.9822C24.3556 19.5022 24.0104 19.4494 23.4693 19.6808C20.0413 21.1467 16.4727 21.5624 12.7868 20.9317C11.1771 20.6562 9.63131 20.1733 8.13697 19.5233C8.05454 19.4878 7.92459 19.4561 7.86156 19.4955C7.66374 19.6184 7.48628 19.7758 7.24482 19.9649C8.18254 20.4075 9.07081 20.827 9.97168 21.2523C9.93386 21.3292 9.89604 21.4232 9.84174 21.5087C9.32003 22.3401 8.79638 23.1696 8.27272 24H8.16896C7.73646 23.8464 7.303 23.6928 6.8705 23.5382C4.52862 22.7001 2.35934 21.5404 0.338433 20.1041C0.20849 20.011 0.147399 19.914 0.140611 19.7508C0.120247 19.2411 0.0804912 18.7313 0.0465508 18.2215C0.0358838 18.0631 0.0155156 17.9056 0 17.7482C0 17.3728 0 16.9965 0 16.6211C0.0145459 16.5491 0.039758 16.4771 0.0416975 16.4051C0.0688498 15.0111 0.226916 13.6296 0.491651 12.2615C1.20343 8.58935 2.70748 5.24647 4.79723 2.15032C4.85639 2.06295 4.94366 1.97751 5.03869 1.93527C7.04699 1.03571 9.13675 0.392475 11.308 0.00845706C11.4835 -0.0222644 11.5562 0.0305381 11.6241 0.169745C11.8306 0.591205 12.0585 1.00402 12.2496 1.4322C12.3349 1.62421 12.4299 1.6655 12.6365 1.6463C13.6217 1.55509 14.607 1.45429 15.5951 1.4178C16.879 1.3698 18.16 1.46005 19.4313 1.6511C19.6059 1.67702 19.6874 1.62613 19.7591 1.46389C19.9434 1.05107 20.1664 0.655528 20.3507 0.241748C20.4486 0.0228577 20.5669 -0.0261046 20.8045 0.0190176C22.9185 0.414556 24.9636 1.02611 26.9225 1.90935C27.033 1.95927 27.1445 2.04471 27.2124 2.14264C28.2752 3.69119 29.1858 5.32423 29.9257 7.04847C31.0768 9.73372 31.7439 12.5351 31.9427 15.4441C32.0397 16.8601 32.0077 18.2762 31.8904 19.6904C31.8768 19.8507 31.8526 19.988 31.6906 20.1022C29.6978 21.5135 27.5664 22.6646 25.2623 23.495C24.7881 23.6659 24.312 23.832 23.8358 24H23.8378ZM13.5732 13.2542C13.5732 12.6551 13.4724 12.1502 13.2416 11.6721C12.363 9.85949 10.0948 9.44187 8.75565 10.8464C7.53768 12.1242 7.53186 14.1893 8.74207 15.4738C9.76222 16.5558 11.3962 16.6316 12.4978 15.6418C13.23 14.9842 13.548 14.1451 13.5732 13.2542ZM21.4329 10.0064C20.7899 10.0093 20.2954 10.16 19.8474 10.4566C18.2328 11.5271 17.9748 13.9867 19.3237 15.4345C20.37 16.5577 21.9497 16.6441 23.1134 15.6418C24.3275 14.5973 24.5505 12.586 23.5924 11.2324C23.0445 10.4576 22.2911 10.0381 21.4319 10.0054L21.4329 10.0064Z" fill="white"/>
</g>
</svg>
