<svg width="20" height="20" viewBox="0 0 20 20" fill="none" xmlns="http://www.w3.org/2000/svg">
<g id="QJbLyJ.tif">
<g id="Group">
<path id="Vector" d="M0 14.073C0.0517647 13.6342 0.097647 13.1942 0.225882 12.7683C0.485882 11.9059 0.912941 11.1342 1.54 10.4883C2.36118 9.64242 3.20471 8.81889 4.03176 7.98007C4.15882 7.85066 4.24 7.85301 4.36353 7.98124C4.70706 8.33771 5.05765 8.68713 5.41294 9.03066C5.53529 9.14948 5.53176 9.2283 5.41059 9.3483C4.56588 10.1883 3.71176 11.0212 2.89059 11.8836C1.62 13.2201 1.62235 15.4354 2.85882 16.8036C3.63294 17.6601 4.58941 18.106 5.74235 18.0824C6.65294 18.0636 7.47294 17.7448 8.13412 17.1165C8.98824 16.3048 9.81059 15.4589 10.6376 14.6212C10.7753 14.4812 10.8612 14.473 10.9988 14.6177C11.3353 14.9718 11.6824 15.3154 12.0329 15.6554C12.1435 15.7624 12.1647 15.8389 12.0435 15.9589C11.1624 16.8271 10.3129 17.7283 9.40353 18.566C8.44 19.4542 7.28 19.9248 5.95765 19.9918C4.61059 20.0601 3.38941 19.7118 2.31294 18.9095C1.05529 17.9718 0.290588 16.7248 0.0658824 15.1612C0.0423529 14.9942 0.0223529 14.8271 0.00117647 14.6601C0.00117647 14.4648 0.00117647 14.2695 0.00117647 14.0742L0 14.073Z" fill="white"/>
<path id="Vector_2" d="M14.6506 0C15.0494 0.0529412 15.4529 0.0835294 15.8412 0.198824C17.5494 0.707059 18.7824 1.76824 19.5271 3.39176C19.8412 4.07765 19.9918 4.80471 20 5.55176C20.0141 6.84823 19.6412 8.02706 18.8541 9.06941C18.5494 9.47176 18.1835 9.81412 17.8306 10.1694C17.2247 10.78 16.6153 11.3859 16.0071 11.9929C15.88 12.1192 15.7545 12.1212 15.6306 11.9988C15.2976 11.6706 14.9624 11.3424 14.6294 11.0141C14.4541 10.8412 14.4541 10.8094 14.6259 10.6376C15.4482 9.81176 16.2835 8.99882 17.0918 8.15765C18.3847 6.81176 18.3918 4.59059 17.1412 3.20824C16.3753 2.36118 15.4306 1.91882 14.2953 1.93412C13.3565 1.94588 12.5176 2.27765 11.8365 2.93059C11.0094 3.72353 10.2094 4.54588 9.39882 5.35529C9.19176 5.56235 9.16353 5.55647 8.96706 5.35176C8.63882 5.00941 8.30706 4.66941 7.96706 4.33882C7.85529 4.23059 7.85412 4.16353 7.96353 4.05529C8.81882 3.20588 9.64823 2.33059 10.5259 1.50588C11.4718 0.616471 12.6071 0.112941 13.9129 0.0270588C13.9635 0.0235294 14.0141 0.00941176 14.0659 0C14.2612 0 14.4565 0 14.6518 0H14.6506Z" fill="white"/>
<path id="Vector_3" d="M17.9388 16.7329C17.9365 16.8105 17.8647 16.8893 17.7918 16.9634C17.5129 17.2458 17.2341 17.5281 16.9506 17.8046C16.7447 18.0058 16.6294 17.9999 16.4235 17.7929C11.6906 13.0587 6.95882 8.32462 2.22706 3.58933C2.00471 3.36697 2.00471 3.27991 2.22823 3.05521C2.50823 2.77286 2.78823 2.49286 3.07059 2.21286C3.27412 2.0105 3.37059 2.01168 3.57647 2.21874C6.78 5.42344 9.98353 8.62933 13.1871 11.834C14.7153 13.3634 16.2435 14.8917 17.7718 16.4211C17.8494 16.4987 17.94 16.5693 17.9376 16.7329H17.9388Z" fill="white"/>
</g>
</g>
</svg>
