<svg width="20" height="20" viewBox="0 0 20 20" fill="none" xmlns="http://www.w3.org/2000/svg">
<g id="Layer_1" clip-path="url(#clip0_70_5837)">
<g id="7CSaTp.tif">
<g id="Group">
<path id="Vector" d="M5.893 0C6.126 0.149 6.464 0.248 6.566 0.46C6.71 0.757 6.772 1.16 6.7 1.48C6.605 1.9 6.22 2.101 5.777 2.103C4.743 2.108 3.71 2.105 2.676 2.106C2.495 2.106 2.315 2.106 2.098 2.106V17.893H17.877V13.201H20V19.001C19.888 19.458 19.636 19.803 19.2 20.001H0V0C1.961 0 3.927 0 5.893 0Z" fill="white"/>
<path id="Vector_2" d="M20 10.1C19.768 10.527 19.469 10.869 18.937 10.885C18.288 10.904 17.838 10.394 17.835 9.614C17.828 7.865 17.833 6.116 17.833 4.367C17.833 4.192 17.833 4.018 17.833 3.74C14.812 6.761 11.875 9.697 8.93298 12.638C8.40097 12.079 7.92397 11.578 7.44897 11.08C10.35 8.18 13.281 5.25 16.333 2.199C16.01 2.181 15.844 2.165 15.678 2.165C13.911 2.163 12.144 2.169 10.378 2.161C9.59697 2.158 9.08897 1.709 9.10697 1.059C9.12097 0.526 9.46197 0.227 9.89497 0H20V10.1Z" fill="white"/>
</g>
</g>
</g>
<defs>
<clipPath id="clip0_70_5837">
<rect width="20" height="20" fill="white"/>
</clipPath>
</defs>
</svg>
