<svg width="40" height="40" viewBox="0 0 40 40" fill="none" xmlns="http://www.w3.org/2000/svg">
<g id="Layer_1" clip-path="url(#clip0_21_24554)">
<path id="Vector" d="M21.3329 35.0002H18.6663V37.5001H21.3329V35.0002Z" fill="black"/>
<path id="Vector_2" d="M23.9996 32.4998H21.333V34.9996H23.9996V32.4998Z" fill="black"/>
<path id="Vector_3" d="M18.6664 32.4998H15.9998V34.9996H18.6664V32.4998Z" fill="black"/>
<path id="Vector_4" d="M26.6669 29.9998H24.0002V32.4996H26.6669V29.9998Z" fill="black"/>
<path id="Vector_5" d="M15.9996 29.9998H13.333V32.4996H15.9996V29.9998Z" fill="black"/>
<path id="Vector_6" d="M29.3336 27.5H26.667V29.9998H29.3336V27.5Z" fill="black"/>
<path id="Vector_7" d="M13.3331 27.5H10.6665V29.9998H13.3331V27.5Z" fill="black"/>
<path id="Vector_8" d="M32.0001 25H29.3335V27.4998H32.0001V25Z" fill="black"/>
<path id="Vector_9" d="M10.6664 25H7.99976V27.4998H10.6664V25Z" fill="black"/>
<path id="Vector_10" d="M34.6667 14.9998H32.0001V12.5H29.3334V14.9998H26.6668V12.5H24.0002V10.0001H21.3328V7.50028H24.0002V4.9996H21.3328V2.49976H18.6662V4.9996H15.9996V7.50028H18.6662V12.5H15.9996V14.9998H13.3329V17.4997H10.6663V19.9995H5.33312V17.4997H2.6665V22.5002H5.33312V25H7.99973V22.5002H18.6662V32.4995H21.3328V19.9995H15.9996V17.4997H18.6662V14.9998H21.3328V19.9995H24.0002V22.5002H32.0001V25H34.6667V22.5002H37.3333V17.4997H34.6667V14.9998Z" fill="black"/>
<path id="Vector_11" d="M7.99986 15H5.33325V17.4998H7.99986V15Z" fill="black"/>
<path id="Vector_12" d="M10.6664 12.5H7.99976V14.9998H10.6664V12.5Z" fill="black"/>
<path id="Vector_13" d="M29.3336 10.0002H26.667V12.5001H29.3336V10.0002Z" fill="black"/>
<path id="Vector_14" d="M13.3331 10.0002H10.6665V12.5001H13.3331V10.0002Z" fill="black"/>
<path id="Vector_15" d="M26.6669 7.50024H24.0002V10.0001H26.6669V7.50024Z" fill="black"/>
<path id="Vector_16" d="M15.9996 7.50024H13.333V10.0001H15.9996V7.50024Z" fill="black"/>
<path id="Vector_17" d="M21.3329 37.5002H18.6663V40.0001H21.3329V37.5002Z" fill="white"/>
<path id="Vector_18" d="M23.9996 35.0002H21.333V37.5001H23.9996V35.0002Z" fill="white"/>
<path id="Vector_19" d="M18.6664 35.0002H15.9998V37.5001H18.6664V35.0002Z" fill="white"/>
<path id="Vector_20" d="M26.6669 32.4998H24.0002V34.9996H26.6669V32.4998Z" fill="white"/>
<path id="Vector_21" d="M21.3329 32.4998H18.6663V34.9996H21.3329V32.4998Z" fill="white"/>
<path id="Vector_22" d="M15.9996 32.4998H13.333V34.9996H15.9996V32.4998Z" fill="white"/>
<path id="Vector_23" d="M29.3336 29.9998H26.667V32.4996H29.3336V29.9998Z" fill="white"/>
<path id="Vector_24" d="M24.0004 29.9997H26.6671V27.4999H29.3337V25H32.0003V22.5002H24.0004V19.9995H21.333V32.4996H24.0004V29.9997Z" fill="white"/>
<path id="Vector_25" d="M13.3331 29.9998H10.6665V32.4996H13.3331V29.9998Z" fill="white"/>
<path id="Vector_26" d="M32.0001 27.5H29.3335V29.9998H32.0001V27.5Z" fill="white"/>
<path id="Vector_27" d="M10.6664 27.5H7.99976V29.9998H10.6664V27.5Z" fill="white"/>
<path id="Vector_28" d="M10.6664 27.4999H13.333V29.9998H15.9996V32.4996H18.6662V22.5002H7.99976V25.0001H10.6664V27.4999Z" fill="white"/>
<path id="Vector_29" d="M7.99986 25H5.33325V27.4998H7.99986V25Z" fill="white"/>
<path id="Vector_30" d="M37.3334 22.5002H34.6667V25.0001H37.3334V22.5002Z" fill="white"/>
<path id="Vector_31" d="M5.33312 22.5002H2.6665V25.0001H5.33312V22.5002Z" fill="white"/>
<path id="Vector_32" d="M40.0001 17.4998H37.3335V22.4994H40.0001V17.4998Z" fill="white"/>
<path id="Vector_33" d="M2.66661 17.4998H0V22.4994H2.66661V17.4998Z" fill="white"/>
<path id="Vector_34" d="M37.3334 15H34.6667V17.4998H37.3334V15Z" fill="white"/>
<path id="Vector_35" d="M21.333 15H18.6664V17.4998H15.9998V19.9997H21.333V15Z" fill="white"/>
<path id="Vector_36" d="M5.33312 15H2.6665V17.4998H5.33312V15Z" fill="white"/>
<path id="Vector_37" d="M34.6669 12.5H32.0002V14.9998H34.6669V12.5Z" fill="white"/>
<path id="Vector_38" d="M29.3336 12.5H26.667V14.9998H29.3336V12.5Z" fill="white"/>
<path id="Vector_39" d="M7.99986 12.5H5.33325V14.9998H7.99986V12.5Z" fill="white"/>
<path id="Vector_40" d="M32.0001 10.0002H29.3335V12.5001H32.0001V10.0002Z" fill="white"/>
<path id="Vector_41" d="M26.6669 10.0002H24.0002V12.5001H26.6669V10.0002Z" fill="white"/>
<path id="Vector_42" d="M13.3331 10.0001V12.4999H10.6665V14.9998H7.99986V17.4996H5.33325V19.9995H10.6665V17.4996H13.3331V14.9998H15.9997V12.4999H18.6663V7.50024H15.9997V10.0001H13.3331Z" fill="white"/>
<path id="Vector_43" d="M10.6664 10.0002H7.99976V12.5001H10.6664V10.0002Z" fill="white"/>
<path id="Vector_44" d="M29.3336 7.50024H26.667V10.0001H29.3336V7.50024Z" fill="white"/>
<path id="Vector_45" d="M23.9996 7.50024H21.333V10.0001H23.9996V7.50024Z" fill="white"/>
<path id="Vector_46" d="M13.3331 7.50024H10.6665V10.0001H13.3331V7.50024Z" fill="white"/>
<path id="Vector_47" d="M26.6669 4.99976H24.0002V7.4996H26.6669V4.99976Z" fill="white"/>
<path id="Vector_48" d="M15.9996 4.99976H13.333V7.4996H15.9996V4.99976Z" fill="white"/>
<path id="Vector_49" d="M23.9996 2.49976H21.333V4.9996H23.9996V2.49976Z" fill="white"/>
<path id="Vector_50" d="M18.6664 2.49976H15.9998V4.9996H18.6664V2.49976Z" fill="white"/>
<path id="Vector_51" d="M18.6663 0V2.49984H21.3329V0" fill="white"/>
</g>
<defs>
<clipPath id="clip0_21_24554">
<rect width="40" height="40" fill="white"/>
</clipPath>
</defs>
</svg>
