<svg width="30" height="30" viewBox="0 0 30 30" fill="none" xmlns="http://www.w3.org/2000/svg">
<g id="Layer_1" clip-path="url(#clip0_75_5903)">
<path id="Vector" d="M5.625 28.125V26.25H3.75V13.125H5.625V11.25H1.875V28.125H5.625Z" fill="black"/>
<path id="Vector_2" d="M7.5 5.625H9.375V3.75H11.25V5.625H18.75V9.375H24.375V3.75H22.5V7.5H20.625V3.75H22.5V1.875H7.5V3.75H5.625V11.25H7.5V5.625Z" fill="black"/>
<path id="Vector_3" d="M9.375 11.25H7.5V28.125H28.125V11.25H11.25V5.625H9.375V11.25ZM15 15H20.625V18.75H18.75V22.5H16.875V18.75H15V15ZM9.375 26.25V22.5H11.25V24.375H13.125V26.25H9.375ZM26.25 26.25H22.5V24.375H24.375V22.5H26.25V26.25ZM26.25 13.125V16.875H24.375V15H22.5V13.125H26.25ZM13.125 13.125V15H11.25V16.875H9.375V13.125H13.125Z" fill="black"/>
<path id="Vector_4" d="M28.125 30V28.125H7.5V11.25H5.625V13.125H3.75V26.25H5.625V28.125H1.875V30" fill="white"/>
<path id="Vector_5" d="M0 28.125H1.875V11.25H0" fill="white"/>
<path id="Vector_6" d="M24.375 24.375H22.5V26.25H26.25V22.5H24.375V24.375Z" fill="white"/>
<path id="Vector_7" d="M11.25 22.5H9.375V26.25H13.125V24.375H11.25V22.5Z" fill="white"/>
<path id="Vector_8" d="M15 15V18.75H16.875V22.5H18.75V18.75H20.625V15H15Z" fill="white"/>
<path id="Vector_9" d="M30 11.25H28.125V28.125H30V11.25Z" fill="white"/>
<path id="Vector_10" d="M22.5 13.125V15H24.375V16.875H26.25V13.125H22.5Z" fill="white"/>
<path id="Vector_11" d="M9.375 13.125V16.875H11.25V15H13.125V13.125H9.375Z" fill="white"/>
<path id="Vector_12" d="M9.375 5.625H7.5V11.25H9.375V5.625Z" fill="white"/>
<path id="Vector_13" d="M5.625 11.25V3.75H3.75V9.375H1.875V11.25H5.625Z" fill="white"/>
<path id="Vector_14" d="M24.375 9.375H18.75V5.625H11.25V11.25H13.125V7.5H16.875V11.25H28.125V9.375H26.25V3.75H24.375V9.375Z" fill="white"/>
<path id="Vector_15" d="M22.5 3.75H20.625V7.5H22.5V3.75Z" fill="white"/>
<path id="Vector_16" d="M11.25 3.75H9.375V5.625H11.25V3.75Z" fill="white"/>
<path id="Vector_17" d="M24.375 1.875H22.5V3.75H24.375V1.875Z" fill="white"/>
<path id="Vector_18" d="M7.5 1.875H5.625V3.75H7.5V1.875Z" fill="white"/>
<path id="Vector_19" d="M22.5 0H7.5V1.875H22.5V0Z" fill="white"/>
</g>
<defs>
<clipPath id="clip0_75_5903">
<rect width="30" height="30" fill="white"/>
</clipPath>
</defs>
</svg>
