<svg width="20" height="20" viewBox="0 0 20 20" fill="none" xmlns="http://www.w3.org/2000/svg">
<g id="Layer_1" clip-path="url(#clip0_240_7022)">
<path id="Vector" d="M10 0C4.4864 0 0 4.4864 0 10C0 15.5136 4.4864 20 10 20C15.5136 20 20 15.5136 20 10C20 4.4864 15.5136 0 10 0ZM17.1352 5.1872C17.3368 5.4768 17.2552 5.5992 16.9168 5.5984C16.0368 5.596 15.156 5.5968 14.276 5.5944C14.0776 5.5944 13.8688 5.568 13.8024 5.3488C13.4384 4.1424 12.9392 2.9896 12.408 1.8296C14.424 2.3656 15.9712 3.5104 17.136 5.1872H17.1352ZM8.0184 5.06C8.4184 3.8528 9.0008 2.7424 9.7416 1.7104C9.9536 1.416 10.1192 1.4632 10.3112 1.728C11.0704 2.772 11.6472 3.9072 12.048 5.1336C12.1504 5.4464 12.0776 5.6064 11.7192 5.6C11.1656 5.5896 10.6112 5.5976 10.0576 5.5976C9.5032 5.5976 8.9496 5.5912 8.396 5.5992C7.992 5.6048 7.8952 5.4328 8.0184 5.0608V5.06ZM2.9656 5.204C4.1184 3.5416 5.6432 2.3848 7.5896 1.8016C7.6176 1.7928 7.6576 1.8232 7.6912 1.8352C7.76 1.96 7.6816 2.0568 7.6288 2.1536C7.1192 3.1008 6.6944 4.0832 6.4016 5.1192C6.3112 5.4392 6.1472 5.6056 5.7968 5.6008C4.9352 5.5896 4.0736 5.5976 3.212 5.5984C2.9192 5.5984 2.7376 5.5328 2.9656 5.204ZM1.8256 12.3544C1.3784 10.7856 1.3792 9.2184 1.8232 7.6488C1.9224 7.2992 2.1272 7.1504 2.4928 7.164C2.9712 7.1824 3.4512 7.1688 3.9304 7.1688C4.4096 7.1688 4.8896 7.1768 5.368 7.1664C5.7312 7.1584 5.9248 7.3048 5.8656 7.6808C5.6224 9.2264 5.6208 10.7704 5.8656 12.3152C5.9248 12.688 5.7384 12.8368 5.372 12.8336C4.3944 12.8248 3.416 12.8224 2.4384 12.8344C2.0864 12.8392 1.9144 12.668 1.8248 12.3544H1.8256ZM2.9536 14.7736C2.7536 14.4832 2.9064 14.4024 3.1808 14.4032C4.0808 14.4032 4.98 14.4048 5.88 14.4072C6.0872 14.4072 6.2656 14.4736 6.3296 14.6904C6.684 15.8816 7.164 17.0224 7.7152 18.1616C5.6768 17.6312 4.1208 16.472 2.9536 14.7736ZM7.3688 12.3136C7.1464 10.768 7.1472 9.2232 7.3704 7.6776C7.4224 7.3168 7.6144 7.1592 7.9944 7.1632C9.3544 7.1784 10.7152 7.1752 12.076 7.1656C12.4496 7.1632 12.6232 7.312 12.6832 7.6896C12.9272 9.2352 12.9296 10.7752 12.6816 12.32C12.62 12.7032 12.4344 12.8408 12.0664 12.8344C11.3768 12.8224 10.6872 12.8312 9.9968 12.8312C9.3264 12.8312 8.6552 12.8168 7.9848 12.8368C7.5984 12.848 7.4192 12.6688 7.368 12.3136H7.3688ZM12.1016 14.9208C11.7048 16.1296 11.124 17.24 10.3848 18.2728C10.1904 18.544 10.0248 18.5752 9.8152 18.2872C9.0448 17.2272 8.452 16.0792 8.056 14.8304C7.9624 14.536 8.0576 14.3968 8.3752 14.4008C8.948 14.408 9.5216 14.4032 10.0944 14.4032C10.6296 14.4032 11.164 14.4088 11.6992 14.4008C12.0752 14.3952 12.2328 14.5208 12.1016 14.9208ZM17.176 14.736C16.016 16.4624 14.448 17.6344 12.396 18.156C12.948 17.0296 13.42 15.9048 13.7664 14.7288C13.848 14.4528 14.06 14.404 14.3056 14.404C15.1672 14.404 16.0288 14.3984 16.8912 14.4056C17.0912 14.4072 17.4096 14.3888 17.176 14.736ZM17.6424 12.8352C17.164 12.8192 16.6848 12.8312 16.2056 12.8312C15.7072 12.8312 15.2088 12.828 14.7112 12.8312C14.404 12.8336 14.2512 12.7304 14.2968 12.384C14.5056 10.8 14.5032 9.2136 14.2976 7.6304C14.2544 7.296 14.3768 7.168 14.6968 7.1688C15.6928 7.172 16.6896 7.1768 17.6856 7.1664C18.0096 7.1632 18.1832 7.312 18.2632 7.6088C18.6896 9.1976 18.6872 10.7864 18.268 12.3768C18.1816 12.7048 17.9856 12.8464 17.6432 12.8344L17.6424 12.8352Z" fill="white"/>
</g>
<defs>
<clipPath id="clip0_240_7022">
<rect width="20" height="20" fill="white"/>
</clipPath>
</defs>
</svg>
