<svg width="50" height="50" viewBox="0 0 50 50" fill="none" xmlns="http://www.w3.org/2000/svg">
<g id="Layer_1" clip-path="url(#clip0_65_1924)">
<path id="Vector" d="M44.1175 26.4763V23.535H41.1763V8.82625H38.235V5.885H35.2938V2.9425H14.705V5.885H11.7638V8.82625H8.8225V23.535H5.88125V26.4763H2.94V35.3013H11.7638V29.4175H8.8225V26.4763H11.7638V29.4175H14.705V35.3013H11.7638V38.2425H8.8225V41.185H11.7638V44.1263H14.705V47.0675H20.5875V44.1263H23.5287V41.185H26.47V44.1263H29.4112V47.0675H35.2938V44.1263H38.235V41.185H41.1763V38.2425H38.235V35.3013H35.2938V29.4175H38.235V26.4763H41.1763V29.4175H38.235V35.3013H47.0588V26.4763H44.1175ZM11.765 14.7088H14.7063V11.7663H17.6475V8.825H32.3525V11.7663H35.2938V14.7088H38.235V20.5925H35.2938V23.535H14.705V20.5925H11.7638V14.7088H11.765Z" fill="black"/>
<path id="Vector_2" d="M14.705 20.5925H20.5888V14.7087H23.5288V20.5925H26.4713V14.7087H29.4113V20.5925H35.295V14.7087H32.3525V11.7662H17.6475V14.7087H14.705V20.5925Z" fill="black"/>
<path id="Vector_3" d="M38.2362 44.1263H35.295V47.0675H38.2362V44.1263Z" fill="white"/>
<path id="Vector_4" d="M29.4125 44.1263H26.4713V47.0675H29.4125V44.1263Z" fill="white"/>
<path id="Vector_5" d="M23.53 44.1263H20.5887V47.0675H23.53V44.1263Z" fill="white"/>
<path id="Vector_6" d="M14.7063 44.1263H11.765V47.0675H14.7063V44.1263Z" fill="white"/>
<path id="Vector_7" d="M20.5875 47.0587H14.6962V50H20.5875V47.0587Z" fill="white"/>
<path id="Vector_8" d="M35.2462 47.0587H29.355V50H35.2462V47.0587Z" fill="white"/>
<path id="Vector_9" d="M41.1762 41.185H38.235V44.1262H41.1762V41.185Z" fill="white"/>
<path id="Vector_10" d="M26.47 41.185H23.5287V44.1262H26.47V41.185Z" fill="white"/>
<path id="Vector_11" d="M11.765 41.185H8.82373V44.1262H11.765V41.185Z" fill="white"/>
<path id="Vector_12" d="M38.235 35.3012V38.2425H41.1762V41.185H44.1175V38.2425H47.0587V35.3012H38.235Z" fill="white"/>
<path id="Vector_13" d="M5.88247 38.2425V41.185H8.82372V38.2425H11.765V35.3012H2.94122V38.2425H5.88247Z" fill="white"/>
<path id="Vector_14" d="M14.7063 29.4175H11.765V35.3013H14.7063V29.4175Z" fill="white"/>
<path id="Vector_15" d="M38.2362 29.4175H35.295V35.3013H38.2362V29.4175Z" fill="white"/>
<path id="Vector_16" d="M50 26.4763H47.0587V35.3013H50V26.4763Z" fill="white"/>
<path id="Vector_17" d="M41.1762 26.4763H38.235V29.4175H41.1762V26.4763Z" fill="white"/>
<path id="Vector_18" d="M11.765 26.4763H8.82373V29.4175H11.765V26.4763Z" fill="white"/>
<path id="Vector_19" d="M2.94125 26.4763H0V35.3013H2.94125V26.4763Z" fill="white"/>
<path id="Vector_20" d="M47.0588 23.5338H44.1176V26.475H47.0588V23.5338Z" fill="white"/>
<path id="Vector_21" d="M5.88247 23.5338H2.94122V26.475H5.88247V23.5338Z" fill="white"/>
<path id="Vector_22" d="M35.295 23.5337V20.5925H29.4113V14.7087H26.4713V20.5925H23.5288V14.7087H20.5888V20.5925H14.705V23.5337H35.295Z" fill="white"/>
<path id="Vector_23" d="M44.1175 8.82501H41.1763V23.5338H44.1175V8.82501Z" fill="white"/>
<path id="Vector_24" d="M38.2362 14.7087H35.295V20.5925H38.2362V14.7087Z" fill="white"/>
<path id="Vector_25" d="M14.7063 14.7087H11.765V20.5925H14.7063V14.7087Z" fill="white"/>
<path id="Vector_26" d="M35.2937 11.7662H32.3525V14.7087H35.2937V11.7662Z" fill="white"/>
<path id="Vector_27" d="M17.6463 11.7662H14.705V14.7087H17.6463V11.7662Z" fill="white"/>
<path id="Vector_28" d="M32.3525 8.82501H17.6475V11.7663H32.3525V8.82501Z" fill="white"/>
<path id="Vector_29" d="M8.82376 8.82501H5.88251V23.5338H8.82376V8.82501Z" fill="white"/>
<path id="Vector_30" d="M41.1762 5.88373H38.235V8.82498H41.1762V5.88373Z" fill="white"/>
<path id="Vector_31" d="M11.765 5.88373H8.82373V8.82498H11.765V5.88373Z" fill="white"/>
<path id="Vector_32" d="M38.2362 2.94122H35.295V5.88372H38.2362V2.94122Z" fill="white"/>
<path id="Vector_33" d="M14.7063 2.94122H11.765V5.88372H14.7063V2.94122Z" fill="white"/>
<path id="Vector_34" d="M35.2938 0H14.705V2.94125H35.2938V0Z" fill="white"/>
</g>
<defs>
<clipPath id="clip0_65_1924">
<rect width="50" height="50" fill="white"/>
</clipPath>
</defs>
</svg>
