<svg width="30" height="28" viewBox="0 0 30 28" fill="none" xmlns="http://www.w3.org/2000/svg">
<g id="Layer_1" clip-path="url(#clip0_75_5924)">
<path id="Vector" d="M15 16.6668V22.2223H24.375V16.6668H22.5V14.8149H20.625V16.6668H18.75V14.8149H16.875V16.6668H15Z" fill="black"/>
<path id="Vector_2" d="M1.875 25.9259H9.375V12.9629H1.875V25.9259Z" fill="black"/>
<path id="Vector_3" d="M22.5 12.9629V14.8147H26.25V24.074H13.125V14.8147H16.875V12.9629H11.25V25.9259H28.125V12.9629H22.5Z" fill="black"/>
<path id="Vector_4" d="M20.625 12.9629H18.75V14.8147H20.625V12.9629Z" fill="black"/>
<path id="Vector_5" d="M26.25 7.40732H13.125V3.70361H11.25V11.111H16.875V9.25917H22.5V11.111H28.125V3.70361H26.25V7.40732Z" fill="black"/>
<path id="Vector_6" d="M15 5.55575H24.375V3.7039H22.5V1.85205H13.125V3.7039H15V5.55575Z" fill="black"/>
<path id="Vector_7" d="M26.25 1.85205H24.375V3.7039H26.25V1.85205Z" fill="black"/>
<path id="Vector_8" d="M11.25 1.85205H9.375V3.7039H11.25V1.85205Z" fill="black"/>
<path id="Vector_9" d="M7.5 1.85205H3.75V3.7039H1.875V11.1113H9.375V3.7039H7.5V1.85205ZM7.5 9.25946H5.625V7.40761H3.75V5.55575H7.5V9.25946Z" fill="black"/>
<path id="Vector_10" d="M20.625 14.8149H18.75V16.6668H20.625V14.8149Z" fill="white"/>
<path id="Vector_11" d="M13.125 14.8149V24.0742H26.25V14.8149H22.5V16.6668H24.375V22.2223H15V16.6668H16.875V14.8149H13.125Z" fill="white"/>
<path id="Vector_12" d="M5.625 9.25937H7.5V5.55566H3.75V7.40752H5.625V9.25937Z" fill="white"/>
<path id="Vector_13" d="M13.125 7.40732H26.25V3.70361H24.375V5.55547H15V3.70361H13.125V7.40732Z" fill="white"/>
<path id="Vector_14" d="M28.125 11.111H22.5V9.25917H16.875V11.111H11.25V3.70361H9.375V11.111H1.875V3.70361H0V27.7777H30V3.70361H28.125V11.111ZM1.875 25.9258V12.9629H9.375V25.9258H1.875ZM28.125 25.9258H11.25V12.9629H16.875V14.8147H18.75V12.9629H20.625V14.8147H22.5V12.9629H28.125V25.9258Z" fill="white"/>
<path id="Vector_15" d="M28.125 1.85205H26.25V3.7039H28.125V1.85205Z" fill="white"/>
<path id="Vector_16" d="M3.75 1.85205H1.875V3.7039H3.75V1.85205Z" fill="white"/>
<path id="Vector_17" d="M7.5 1.85185V3.7037H9.375V1.85185H11.25V3.7037H13.125V1.85185H22.5V3.7037H24.375V1.85185H26.25V0H3.75V1.85185H7.5Z" fill="white"/>
</g>
<defs>
<clipPath id="clip0_75_5924">
<rect width="30" height="27.7778" fill="white"/>
</clipPath>
</defs>
</svg>
