<svg width="28" height="24" viewBox="0 0 28 24" fill="none" xmlns="http://www.w3.org/2000/svg">
<g id="Property 1=Variant2">
<path id="Path 3" d="M25.9293 0.144346L7.52362 7.33955C5.23678 8.23186 2.95103 9.12526 0.665274 10.0187C0.347597 10.095 0.0984603 10.3416 0.0157773 10.6623C-0.0679937 11.0801 0.189845 11.4891 0.598909 11.5895C1.35829 11.884 2.12202 12.1687 2.88357 12.4567C4.05093 12.8985 5.2161 13.349 6.38999 13.7755C6.62607 13.8486 6.80558 14.0439 6.86106 14.2882C7.59542 16.711 8.34174 19.1294 9.0848 21.5467C9.10003 21.598 9.11635 21.6492 9.13376 21.7005C9.20882 22.1248 9.6081 22.4074 10.027 22.331C10.1869 22.3026 10.3337 22.223 10.4458 22.1041C11.0964 21.5794 11.7372 21.0416 12.3812 20.5104C12.848 20.1253 13.3125 19.7392 13.7814 19.3574C14.1731 18.9625 14.8008 18.9494 15.2088 19.3257C17.1997 20.7875 19.1895 22.2503 21.1805 23.7131C21.323 23.8178 21.4786 23.9051 21.6287 24H22.1063C22.4076 23.8386 22.6111 23.5364 22.6503 23.1928C24.0298 16.4448 25.4125 9.69795 26.7975 2.95218C26.9258 2.3304 27.0694 1.7108 27.2 1.09011V0.49887C26.8377 -0.0410974 26.5853 -0.113093 25.9304 0.141074M21.0456 5.51675C17.8166 8.56457 14.5821 11.608 11.3444 14.646C10.7689 15.2209 10.4338 15.9998 10.411 16.819C10.3522 17.3982 10.2674 17.9731 10.1901 18.5491C10.1662 18.7214 10.1292 18.9003 9.91163 18.9167C9.69404 18.933 9.62877 18.7738 9.57981 18.6014C9.1566 17.0851 8.73122 15.5689 8.30475 14.0526C8.27755 13.9315 8.25906 13.8083 8.24709 13.685C8.25035 13.2236 8.50493 12.8025 8.90855 12.5909C10.114 11.8415 11.3194 11.0888 12.5227 10.335C15.2784 8.61475 18.0352 6.89558 20.7932 5.17859C20.9291 5.09459 21.0956 4.87861 21.2523 5.0695C21.4296 5.28549 21.1663 5.39785 21.0456 5.5113" fill="#00AA00"/>
</g>
</svg>
