<svg width="36" height="49" viewBox="0 0 36 49" fill="none" xmlns="http://www.w3.org/2000/svg">
<g id="Layer_1" clip-path="url(#clip0_89_1657)">
<path id="Vector" d="M36 21.1045H33.0003V24.1195H36V21.1045Z" fill="white"/>
<path id="Vector_2" d="M36 18.0898H33.0003V21.1048H36V18.0898Z" fill="white"/>
<path id="Vector_3" d="M32.9994 24.1191H29.9997V27.1341H32.9994V24.1191Z" fill="white"/>
<path id="Vector_4" d="M32.9994 18.0898H29.9997V21.1048H32.9994V18.0898Z" fill="white"/>
<path id="Vector_5" d="M29.9997 27.1338H27V30.1488H29.9997V27.1338Z" fill="white"/>
<path id="Vector_6" d="M29.9997 18.0898H27V21.1048H29.9997V18.0898Z" fill="white"/>
<path id="Vector_7" d="M27 30.1494H24.0003V33.1644H27V30.1494Z" fill="white"/>
<path id="Vector_8" d="M27 18.0898H24.0003V21.1048H27V18.0898Z" fill="white"/>
<path id="Vector_9" d="M27 3.01465H24.0003V6.02965H27V3.01465Z" fill="white"/>
<path id="Vector_10" d="M27 0H24.0003V3.015H27V0Z" fill="white"/>
<path id="Vector_11" d="M23.9994 33.1641H20.9997V36.1791H23.9994V33.1641Z" fill="white"/>
<path id="Vector_12" d="M23.9994 18.0898H20.9997V21.1048H23.9994V18.0898Z" fill="white"/>
<path id="Vector_13" d="M23.9994 9.04492H20.9997V12.0599H23.9994V9.04492Z" fill="white"/>
<path id="Vector_14" d="M23.9994 6.03027H20.9997V9.04527H23.9994V6.03027Z" fill="white"/>
<path id="Vector_15" d="M23.9994 0H20.9997V3.015H23.9994V0Z" fill="white"/>
<path id="Vector_16" d="M20.9997 36.1787H18V39.1937H20.9997V36.1787Z" fill="white"/>
<path id="Vector_17" d="M20.9997 18.0898H18V21.1048H20.9997V18.0898Z" fill="white"/>
<path id="Vector_18" d="M20.9997 15.0752H18V18.0902H20.9997V15.0752Z" fill="white"/>
<path id="Vector_19" d="M20.9997 12.0596H18V15.0746H20.9997V12.0596Z" fill="white"/>
<path id="Vector_20" d="M20.9997 3.01465H18V6.02965H20.9997V3.01465Z" fill="white"/>
<path id="Vector_21" d="M18 39.1943H15.0003V42.2102H18V39.1943Z" fill="white"/>
<path id="Vector_22" d="M18 27.1338H15.0003V30.1488H18V27.1338Z" fill="white"/>
<path id="Vector_23" d="M18 24.1191H15.0003V27.1341H18V24.1191Z" fill="white"/>
<path id="Vector_24" d="M18 18.0898H15.0003V21.1048H18V18.0898Z" fill="white"/>
<path id="Vector_25" d="M18 6.03027H15.0003V9.04527H18V6.03027Z" fill="white"/>
<path id="Vector_26" d="M14.9994 42.21H11.9997V45.225H14.9994V42.21Z" fill="white"/>
<path id="Vector_27" d="M14.9994 33.1641H11.9997V36.1791H14.9994V33.1641Z" fill="white"/>
<path id="Vector_28" d="M14.9994 30.1494H11.9997V33.1644H14.9994V30.1494Z" fill="white"/>
<path id="Vector_29" d="M14.9994 24.1191H11.9997V27.1341H14.9994V24.1191Z" fill="white"/>
<path id="Vector_30" d="M14.9994 9.04492H11.9997V12.0599H14.9994V9.04492Z" fill="white"/>
<path id="Vector_31" d="M11.9997 45.2246H9V48.2396H11.9997V45.2246Z" fill="white"/>
<path id="Vector_32" d="M11.9997 39.1943H9V42.2102H11.9997V39.1943Z" fill="white"/>
<path id="Vector_33" d="M11.9997 36.1787H9V39.1937H11.9997V36.1787Z" fill="white"/>
<path id="Vector_34" d="M11.9997 24.1191H9V27.1341H11.9997V24.1191Z" fill="white"/>
<path id="Vector_35" d="M11.9997 12.0596H9V15.0746H11.9997V12.0596Z" fill="white"/>
<path id="Vector_36" d="M9 45.2246H6.0003V48.2396H9V45.2246Z" fill="white"/>
<path id="Vector_37" d="M9 42.21H6.0003V45.225H9V42.21Z" fill="white"/>
<path id="Vector_38" d="M9 24.1191H6.0003V27.1341H9V24.1191Z" fill="white"/>
<path id="Vector_39" d="M9 15.0752H6.0003V18.0902H9V15.0752Z" fill="white"/>
<path id="Vector_40" d="M5.9994 24.1191H2.9997V27.1341H5.9994V24.1191Z" fill="white"/>
<path id="Vector_41" d="M5.9994 18.0898H2.9997V21.1048H5.9994V18.0898Z" fill="white"/>
<path id="Vector_42" d="M2.9997 24.1191H0V27.1341H2.9997V24.1191Z" fill="white"/>
<g id="Group">
<path id="Vector_43" d="M11.9997 42.21H9V45.225H11.9997V42.21Z" fill="black"/>
<g id="Group_2">
<path id="Vector_44" d="M23.9994 3.01465H20.9997V6.02965H23.9994V3.01465Z" fill="black"/>
<path id="Vector_45" d="M33.0003 21.1034V24.1184H29.9997V27.1334H27V30.1484H24.0003V33.1634H20.9997V36.1784H18V39.1934H15.0003V42.2093H11.9997V36.1784H15.0003V30.1484H18V24.1184H2.9997V21.1034H6.0003V18.0893H9V15.0743H11.9997V12.0593H15.0003V9.0443H18V6.0293H20.9997V12.0593H18V18.0893H15.0003V21.1034H33.0003Z" fill="black"/>
</g>
</g>
<path id="Vector_46" d="M2.9997 21.1045H0V24.1195H2.9997V21.1045Z" fill="white"/>
</g>
<defs>
<clipPath id="clip0_89_1657">
<rect width="36" height="48.24" fill="white"/>
</clipPath>
</defs>
</svg>
