<svg width="40" height="40" viewBox="0 0 40 40" fill="none" xmlns="http://www.w3.org/2000/svg">
<g id="Layer_1" clip-path="url(#clip0_21_24418)">
<path id="Vector" d="M32.5 32.5V25.0007H35.0003V35.0003H37.5006V37.5006H32.5V35.0003H12.5V32.5H32.5Z" fill="black"/>
<path id="Vector_2" d="M10.0004 25.0007H15.0002V30.0005H12.4999V32.5H10.0004V35.0003H7.50006V32.5H4.99976V30.0005H7.50006V27.5002H10.0004V25.0007Z" fill="black"/>
<path id="Vector_3" d="M17.5006 22.5002H15.0002V25.0006H17.5006V22.5002Z" fill="black"/>
<path id="Vector_4" d="M32.5008 22.5002H30.0005V25.0006H32.5008V22.5002Z" fill="black"/>
<path id="Vector_5" d="M20.0008 20H17.5005V22.5003H20.0008V20Z" fill="black"/>
<path id="Vector_6" d="M30.0003 20H22.5002V22.5003H30.0003V20Z" fill="black"/>
<path id="Vector_7" d="M22.5003 17.5005H20V20.0008H22.5003V17.5005Z" fill="black"/>
<path id="Vector_8" d="M20.0008 10.0005H17.5005V17.5006H20.0008V10.0005Z" fill="black"/>
<path id="Vector_9" d="M25.0006 15.0002H22.5002V17.5006H25.0006V15.0002Z" fill="black"/>
<path id="Vector_10" d="M27.501 12.5H25.0007V15.0003H27.501V12.5Z" fill="black"/>
<path id="Vector_11" d="M17.5006 7.5H15.0002V10.0003H17.5006V7.5Z" fill="black"/>
<path id="Vector_12" d="M25.0007 10.0004V7.50006H30.0005V4.99976H35.0003V10.0004H32.5V15.0002H30.0005V12.4999H27.5002V10.0004H25.0007Z" fill="black"/>
<path id="Vector_13" d="M4.99973 4.99973H15.0001V7.50004H7.50004V27.5H4.99973V7.50004H2.50024V2.50024H4.99973V4.99973Z" fill="black"/>
<path id="Vector_14" d="M37.4998 37.5005H32.5V40.0008H37.4998V37.5005Z" fill="white"/>
<path id="Vector_15" d="M40.0008 35.0002H37.5005V37.5006H40.0008V35.0002Z" fill="white"/>
<path id="Vector_16" d="M7.50006 32.5H4.99976V35.0003H7.50006V32.5Z" fill="white"/>
<path id="Vector_17" d="M10.0003 32.5H12.4998V35.0003H32.4998V37.5006H7.5V35.0003H10.0003V32.5Z" fill="white"/>
<path id="Vector_18" d="M37.5006 25.0007H35.0002V35.0011H37.5006V25.0007Z" fill="white"/>
<path id="Vector_19" d="M17.5006 30.0005H30.0005V25.0007H32.5V32.5H12.5V30.0005H15.0003V25.0007H17.5006V30.0005Z" fill="white"/>
<path id="Vector_20" d="M20.0008 22.5002H17.5005V25.0006H20.0008V22.5002Z" fill="white"/>
<path id="Vector_21" d="M30.0003 22.5002H22.5002V25.0006H30.0003V22.5002Z" fill="white"/>
<path id="Vector_22" d="M35.0003 22.5002H32.5V25.0006H35.0003V22.5002Z" fill="white"/>
<path id="Vector_23" d="M17.5006 20H15.0002V22.5003H17.5006V20Z" fill="white"/>
<path id="Vector_24" d="M22.5003 20H20V22.5003H22.5003V20Z" fill="white"/>
<path id="Vector_25" d="M32.5008 20H30.0005V22.5003H32.5008V20Z" fill="white"/>
<path id="Vector_26" d="M20.0008 17.5005H17.5005V20.0008H20.0008V17.5005Z" fill="white"/>
<path id="Vector_27" d="M22.5002 20V17.5006H25.0006V15.0002H27.5V17.5006H30.0003V20H22.5002Z" fill="white"/>
<path id="Vector_28" d="M17.5006 10.0005H15.0002V17.5006H17.5006V10.0005Z" fill="white"/>
<path id="Vector_29" d="M32.5008 15.0002H30.0005V17.5006H32.5008V15.0002Z" fill="white"/>
<path id="Vector_30" d="M25.0006 12.5V15.0003H22.5003V17.5006H20V10.0005H22.5003V12.5H25.0006Z" fill="white"/>
<path id="Vector_31" d="M30.0003 12.5H27.5V15.0003H30.0003V12.5Z" fill="white"/>
<path id="Vector_32" d="M27.501 10.0005H25.0007V12.5008H27.501V10.0005Z" fill="white"/>
<path id="Vector_33" d="M35.0003 10.0005H32.5V15.0003H35.0003V10.0005Z" fill="white"/>
<path id="Vector_34" d="M4.99973 27.5H7.50004V30.0003H4.99973V32.4998H2.50024V7.5H4.99973V27.5Z" fill="white"/>
<path id="Vector_35" d="M10.0003 10.0003V22.5002H15.0001V25.0005H10.0003V27.5H7.5V7.5H15.0001V10.0003H10.0003Z" fill="white"/>
<path id="Vector_36" d="M20.0008 7.5H17.5005V10.0003H20.0008V7.5Z" fill="white"/>
<path id="Vector_37" d="M25.0006 7.5H22.5002V10.0003H25.0006V7.5Z" fill="white"/>
<path id="Vector_38" d="M17.5006 4.99976H15.0002V7.50006H17.5006V4.99976Z" fill="white"/>
<path id="Vector_39" d="M30.0005 4.99976H25.0007V7.50006H30.0005V4.99976Z" fill="white"/>
<path id="Vector_40" d="M35.0003 4.99973H30.0005V2.50024H37.5006V10.0003H35.0003V4.99973Z" fill="white"/>
<path id="Vector_41" d="M2.50031 2.50024H0V7.50004H2.50031V2.50024Z" fill="white"/>
<path id="Vector_42" d="M15.0002 2.50024H4.99976V5.00055H15.0002V2.50024Z" fill="white"/>
<path id="Vector_43" d="M5.00055 0H2.50024V2.50031H5.00055V0Z" fill="white"/>
</g>
<defs>
<clipPath id="clip0_21_24418">
<rect width="40" height="40" fill="white"/>
</clipPath>
</defs>
</svg>
