<svg width="42" height="50" viewBox="0 0 42 50" fill="none" xmlns="http://www.w3.org/2000/svg">
<g id="Group 12">
<path id="Vector" d="M27.7771 44.4844H25V47.2646H27.7771V44.4844Z" fill="black"/>
<path id="Vector_2" d="M16.6667 44.4844H13.8885V47.2646H16.6667V44.4844Z" fill="black"/>
<path id="Vector_3" d="M36.1104 36.1438H30.5552V41.7042H33.3333V44.4844H38.8885V38.9229H36.1104V36.1438Z" fill="black"/>
<path id="Vector_4" d="M27.7771 36.1438H13.8885V41.7042H27.7771V36.1438Z" fill="black"/>
<path id="Vector_5" d="M5.55523 36.1438V38.9229H2.7771V44.4844H8.33335V41.7042H11.1104V36.1438H5.55523Z" fill="black"/>
<path id="Vector_6" d="M36.1104 30.5823V16.6813H33.3333V13.901H36.1104V5.56042H33.3333V2.78021H27.7771V5.56042H30.5552V11.1208H11.1104V5.56042H13.8885V2.78021H8.3333V5.56042H5.55518V13.901H8.3333V16.6813H5.55518V30.5823H11.1104V33.3625H22.2218V30.5823H36.1104ZM8.3333 27.8021V19.4615H27.7771V27.8021H8.3333Z" fill="black"/>
<path id="Vector_7" d="M22.2219 22.2417H19.4437V25.0219H22.2219V22.2417Z" fill="black"/>
<path id="Vector_8" d="M13.8886 22.2417H11.1105V25.0219H13.8886V22.2417Z" fill="black"/>
<path id="Vector_9" d="M38.8886 44.4844H33.3334V47.2646H38.8886V44.4844Z" fill="white"/>
<path id="Vector_10" d="M8.33335 44.4844H2.7771V47.2646H8.33335V44.4844Z" fill="white"/>
<path id="Vector_11" d="M41.6667 38.9229H38.8885V44.4834H41.6667V38.9229Z" fill="white"/>
<path id="Vector_12" d="M2.77708 38.9229H0V44.4834H2.77708V38.9229Z" fill="white"/>
<path id="Vector_13" d="M38.8886 36.1438H36.1105V38.924H38.8886V36.1438Z" fill="white"/>
<path id="Vector_14" d="M5.55523 36.1438H2.7771V38.924H5.55523V36.1438Z" fill="white"/>
<path id="Vector_15" d="M36.1104 36.1438V30.5833H22.2218V33.3636H11.1104V30.5833H5.55518V36.1438H11.1104V41.7042H8.3333V44.4844H11.1104V47.2198H11.1073V50H19.4406V47.2646H19.4437V44.4844H22.2406V50H30.5552V44.4844H33.3333V41.7042H30.5552V36.1438H36.1104ZM13.8885 44.4844H16.6666V47.2198H13.8885V44.4844ZM27.7771 47.2198H25V44.4844H27.7771V47.2198ZM27.7771 41.7042H13.8885V36.1438H27.7771V41.7042Z" fill="white"/>
<path id="Vector_16" d="M27.7771 27.8021V19.4615H8.33337V27.8021H27.7771ZM22.2219 22.2417V25.0219H19.4438V22.2417H22.2219ZM11.1105 22.2417H13.8886V25.0219H11.1105V22.2417Z" fill="white"/>
<path id="Vector_17" d="M5.55523 16.6813H2.7771V30.5823H5.55523V16.6813Z" fill="white"/>
<path id="Vector_18" d="M38.8886 16.6813H36.1105V30.5823H38.8886V16.6813Z" fill="white"/>
<path id="Vector_19" d="M36.1105 13.9011H33.3334V16.6813H36.1105V13.9011Z" fill="white"/>
<path id="Vector_20" d="M8.3333 13.9011H5.55518V16.6813H8.3333V13.9011Z" fill="white"/>
<path id="Vector_21" d="M38.8886 5.56042H36.1105V13.9011H38.8886V5.56042Z" fill="white"/>
<path id="Vector_22" d="M5.55523 5.56042H2.7771V13.9011H5.55523V5.56042Z" fill="white"/>
<path id="Vector_23" d="M11.1105 11.1208H30.5553V5.56042H27.7771V8.34063H13.8886V5.56042H11.1105V11.1208Z" fill="white"/>
<path id="Vector_24" d="M36.1105 2.78021H33.3334V5.56042H36.1105V2.78021Z" fill="white"/>
<path id="Vector_25" d="M27.7771 2.78021H25V5.56042H27.7771V2.78021Z" fill="white"/>
<path id="Vector_26" d="M8.3333 2.78021H5.55518V5.56042H8.3333V2.78021Z" fill="white"/>
<path id="Vector_27" d="M33.3334 0H27.7771V2.78021H33.3334V0Z" fill="white"/>
<path id="Vector_28" d="M13.8886 2.78021V5.56042H16.6667V0H8.33337V2.78021H13.8886Z" fill="white"/>
</g>
</svg>
