<svg width="40" height="40" viewBox="0 0 40 40" fill="none" xmlns="http://www.w3.org/2000/svg">
<g id="Layer_1" clip-path="url(#clip0_21_24608)">
<path id="Vector" d="M30.7689 24.6149V21.5379H33.8459V18.4619H36.9229V15.3849H24.6149V9.2309H21.5379V3.0769H18.4619V9.2309H15.3849V15.3849H3.0769V18.4619H6.1539V21.5379H9.2309V24.6149H12.3079V27.6919H9.2309V33.8459H6.1539V36.9229H12.3079V33.8459H15.3849V30.7689H18.4619V27.6919H21.5379V30.7689H24.6149V33.8459H27.6919V36.9229H33.8459V33.8459H30.7689V27.6919H27.6919V24.6149H30.7689Z" fill="black"/>
<path id="Vector_2" d="M33.8459 36.9231H27.6919V40.0001H33.8459V36.9231Z" fill="white"/>
<path id="Vector_3" d="M12.3081 36.9231H6.15405V40.0001H12.3081V36.9231Z" fill="white"/>
<path id="Vector_4" d="M36.9229 33.8459H33.8459V36.9229H36.9229V33.8459Z" fill="white"/>
<path id="Vector_5" d="M27.692 33.8459H24.615V36.9229H27.692V33.8459Z" fill="white"/>
<path id="Vector_6" d="M15.3851 33.8459H12.3081V36.9229H15.3851V33.8459Z" fill="white"/>
<path id="Vector_7" d="M6.1539 33.8459H3.0769V36.9229H6.1539V33.8459Z" fill="white"/>
<path id="Vector_8" d="M33.846 27.6919H30.769V33.8459H33.846V27.6919Z" fill="white"/>
<path id="Vector_9" d="M24.6151 30.769H21.5381V33.846H24.6151V30.769Z" fill="white"/>
<path id="Vector_10" d="M18.462 30.769H15.385V33.846H18.462V30.769Z" fill="white"/>
<path id="Vector_11" d="M9.23105 27.6919H6.15405V33.8459H9.23105V27.6919Z" fill="white"/>
<path id="Vector_12" d="M21.5389 27.6919H18.4619V30.7689H21.5389V27.6919Z" fill="white"/>
<path id="Vector_13" d="M30.7689 24.615H27.6919V27.692H30.7689V24.615Z" fill="white"/>
<path id="Vector_14" d="M12.308 24.615H9.23096V27.692H12.308V24.615Z" fill="white"/>
<path id="Vector_15" d="M33.846 21.5381H30.769V24.6151H33.846V21.5381Z" fill="white"/>
<path id="Vector_16" d="M9.23105 21.5381H6.15405V24.6151H9.23105V21.5381Z" fill="white"/>
<path id="Vector_17" d="M36.9229 18.4619H33.8459V21.5389H36.9229V18.4619Z" fill="white"/>
<path id="Vector_18" d="M6.1539 18.4619H3.0769V21.5389H6.1539V18.4619Z" fill="white"/>
<path id="Vector_19" d="M40.0001 15.385H36.9231V18.462H40.0001V15.385Z" fill="white"/>
<path id="Vector_20" d="M3.077 15.385H0V18.462H3.077V15.385Z" fill="white"/>
<path id="Vector_21" d="M24.615 15.385H36.923V12.308H27.692V9.23096H24.615V15.385Z" fill="white"/>
<path id="Vector_22" d="M15.3849 15.385V9.23096H12.3079V12.308H3.0769V15.385H15.3849Z" fill="white"/>
<path id="Vector_23" d="M24.6151 3.0769H21.5381V9.2309H24.6151V3.0769Z" fill="white"/>
<path id="Vector_24" d="M18.462 3.0769H15.385V9.2309H18.462V3.0769Z" fill="white"/>
<path id="Vector_25" d="M21.5389 0H18.4619V3.077H21.5389V0Z" fill="white"/>
</g>
<defs>
<clipPath id="clip0_21_24608">
<rect width="40" height="40" fill="white"/>
</clipPath>
</defs>
</svg>
