<svg width="24" height="24" viewBox="0 0 24 24" fill="none" xmlns="http://www.w3.org/2000/svg">
<g id="Property 1=Variant2">
<path id="Vector" d="M24 23.9999C23.9322 23.9999 23.8896 23.9999 23.847 23.9999C21.5607 23.9989 19.2743 23.9978 16.988 23.9967C16.8896 23.9967 16.8153 23.9861 16.7454 23.8901C16.1596 23.0815 15.6011 22.2537 15.0241 21.4397C13.9465 19.9207 12.8809 18.3952 11.811 16.8708C11.329 16.1838 10.8437 15.5 10.3585 14.8162C10.3366 14.7853 10.3334 14.7415 10.2973 14.7255C9.99893 15.068 9.70276 15.4093 9.40549 15.7486C8.29511 17.0137 7.18255 18.2768 6.07217 19.542C5.16288 20.5767 4.25468 21.6136 3.34649 22.6484C2.96725 23.0804 2.58583 23.5114 2.2066 23.9445C2.16944 23.9861 2.13228 24.001 2.07764 23.9999C1.41972 23.9967 0.761793 23.9946 0.103871 23.9925C0.0765483 23.9925 0.0404828 24.0085 0.0251822 23.9786C0.00660303 23.9434 0.0437614 23.9221 0.0634335 23.8997C1.04922 22.7764 2.03501 21.6509 3.0219 20.5287C3.84375 19.5953 4.67545 18.6715 5.48965 17.7327C6.63719 16.41 7.80222 15.1032 8.95303 13.7836C9.0656 13.6556 9.17926 13.5286 9.29402 13.4028C9.33227 13.3612 9.33336 13.3281 9.29948 13.2812C8.7115 12.4619 8.13446 11.6341 7.5585 10.8063C7.07326 10.1086 6.58036 9.41735 6.09184 8.72289C5.39785 7.73614 4.70277 6.74832 4.00987 5.7605C3.14212 4.52306 2.27764 3.28348 1.40988 2.04604C0.947585 1.38999 0.483105 0.734997 0.0186249 0.0800069C-0.0207193 0.0245355 0.00660304 0.00533369 0.0601548 0.00426693C0.174909 0.00106665 0.289663 0.00106678 0.405509 0.00106678C2.63064 0.00106678 4.85577 0.00106676 7.08091 0C7.13009 0 7.16834 0.00426696 7.20003 0.0501376C7.59238 0.613386 7.98473 1.17664 8.37926 1.73882C9.41424 3.21308 10.4503 4.68734 11.4864 6.16053C12.0842 7.01181 12.6842 7.86308 13.2798 8.71542C13.3323 8.7901 13.3497 8.79329 13.4109 8.72182C14.4339 7.55052 15.4601 6.38135 16.4864 5.21219C17.1891 4.41105 17.8918 3.61098 18.5956 2.80984C19.376 1.92123 20.1596 1.03582 20.9366 0.142946C21.0284 0.0373366 21.1268 0 21.259 0C21.7618 0.00320028 22.2656 0.0010666 22.7683 0.00213336C22.8765 0.00213336 22.9836 0.00213351 23.0918 0.00853407C23.1235 0.0106676 23.1705 -0.00213358 23.1847 0.0416035C23.1956 0.0757398 23.1617 0.0981418 23.141 0.12161C22.906 0.3883 22.6689 0.652857 22.4339 0.919546C21.8273 1.61081 21.2219 2.30313 20.6142 2.99333C19.847 3.86487 19.0754 4.73321 18.3093 5.60582C17.3792 6.66511 16.4525 7.7276 15.5235 8.78796C15.1323 9.23387 14.741 9.67871 14.3454 10.1214C14.2984 10.1747 14.294 10.1918 14.3465 10.2494C14.4437 10.3561 14.5191 10.482 14.6022 10.6015C15.7694 12.2645 16.9355 13.9287 18.1017 15.5918C19.3006 17.3007 20.5006 19.0107 21.7006 20.7197C22.423 21.748 23.1454 22.7753 23.8678 23.8037C23.9082 23.8613 23.9454 23.9199 23.9978 23.9999H24ZM21.0492 22.4862C20.9913 22.4169 20.9497 22.3731 20.9148 22.3251C20.3355 21.5123 19.7596 20.6973 19.1792 19.8844C18.2907 18.6395 17.4 17.3956 16.5115 16.1518C15.6656 14.9677 14.8186 13.7847 13.9738 12.6006C13.2295 11.5573 12.4896 10.5108 11.741 9.47176C11.1202 8.60981 10.517 7.73614 9.89402 6.87633C9.02407 5.67409 8.16506 4.46545 7.30167 3.25895C6.92899 2.73837 6.55632 2.21673 6.18364 1.69508C6.1443 1.64068 6.10714 1.59694 6.02189 1.598C5.02627 1.60227 4.03064 1.60014 3.03501 1.60121C3.00878 1.60121 2.97818 1.5884 2.95414 1.61721C2.95851 1.62681 2.9607 1.63641 2.96616 1.64494C3.21753 2.00017 3.4678 2.3554 3.72244 2.70957C4.56944 3.88834 5.40659 5.07351 6.25249 6.25228C7.05577 7.37131 7.84265 8.49994 8.65467 9.61257C9.16178 10.307 9.6503 11.0154 10.153 11.713C11.0689 12.9857 11.976 14.2658 12.8907 15.5395C13.5672 16.4825 14.2372 17.4308 14.9115 18.376C15.8678 19.7158 16.8273 21.0536 17.7836 22.3934C17.8328 22.4627 17.8853 22.4905 17.9683 22.4905C18.7016 22.4873 19.435 22.4873 20.1683 22.4862C20.4546 22.4862 20.741 22.4862 21.0503 22.4862H21.0492Z" fill="#00AA00"/>
</g>
</svg>
