<svg width="40" height="40" viewBox="0 0 40 40" fill="none" xmlns="http://www.w3.org/2000/svg">
<g id="Layer_1" clip-path="url(#clip0_75_4520)">
<path id="Vector" d="M39.7128 16.564C39.0208 12.2488 37.1208 8.57443 33.9752 5.57603C33.8224 5.43043 33.5992 5.30083 33.396 5.27683C31.8904 5.10003 30.3848 4.86003 28.8736 4.81443C25.556 4.71443 22.3288 5.23603 19.3312 6.75443C15.0688 8.91363 12.1696 12.2184 11.3184 17.0864C10.8224 19.9216 11.5952 22.4264 13.7128 24.3904C14.5072 25.1272 15.4688 25.6784 16.2576 26.2456C16.0888 26.192 15.776 26.1016 15.4704 25.9936C11.5248 24.6016 9.32959 21.292 9.61759 17.0984C9.85359 13.66 11.3312 10.7808 13.6512 8.32883C16.5336 5.28163 20.1536 3.69443 24.1984 2.99523C26.088 2.66883 27.9928 2.58083 29.9136 2.62403C25.5848 0.181633 20.9624 -0.531167 16.1328 0.383233C7.08319 2.09763 0.98319 9.56323 0.13279 17.6568C-0.44561 23.164 0.84879 28.1232 4.33599 32.436C4.54159 32.6904 4.85119 32.9128 5.15759 33.02C7.91759 33.988 10.7664 34.3552 13.68 34.2304C16.3168 34.1176 18.8344 33.5192 21.1488 32.2104C24.9344 30.0704 27.5792 26.964 28.6392 22.6472C29.436 19.4008 28.6992 16.5232 26.1864 14.2568C25.5312 13.6656 24.7088 13.2648 24.0064 12.8056C26.0072 13.4384 27.76 14.5456 29.012 16.364C30.6024 18.6736 30.8392 21.2448 30.1608 23.8888C28.8128 29.1448 25.4424 32.6672 20.6488 34.8544C17.3408 36.364 13.836 36.6344 10.2656 36.2824C9.54799 36.2112 8.83439 36.0928 8.03679 35.9848C8.17999 36.108 8.25359 36.1816 8.33679 36.2416C11.5008 38.5472 15.0456 39.7768 18.9216 39.9704C23.4448 40.1968 27.6256 39.0752 31.3896 36.484C34.0776 34.6336 36.1896 32.2472 37.712 29.336C39.816 25.3128 40.4328 21.0416 39.7144 16.5632L39.7128 16.564ZM20.4728 17.456C23.6936 17.748 25.0336 18.0264 28.328 18.3256C22.1568 23.5648 18.44 28.476 12.436 33.5728C12.396 33.5432 17.1368 25.5392 19.6616 21.348C17.1968 21.0936 14.3352 20.852 11.804 20.5904C17.328 15.44 23.1248 10.6016 28.508 5.58243C28.5496 5.61043 23.112 13.3992 20.472 17.4568L20.4728 17.456Z" fill="white"/>
</g>
<defs>
<clipPath id="clip0_75_4520">
<rect width="40" height="40" fill="white"/>
</clipPath>
</defs>
</svg>
