<?xml version="1.0" encoding="UTF-8"?>
<svg id="Layer_1" xmlns="http://www.w3.org/2000/svg" viewBox="0 0 400 400">
  <defs>
    <style>
      .cls-1 {
        fill: #fff;
      }
    </style>
  </defs>
  <path class="cls-1" d="M397.13,165.64c-6.92-43.15-25.92-79.89-57.38-109.88-1.53-1.46-3.76-2.75-5.79-2.99-15.05-1.77-30.12-4.17-45.23-4.62-33.18-1-65.45,4.22-95.43,19.4-42.62,21.59-71.62,54.64-80.13,103.32-4.96,28.35,2.77,53.4,23.95,73.04,7.94,7.37,17.56,12.88,25.45,18.55-1.69-.54-4.81-1.44-7.87-2.52-39.45-13.92-61.41-47.02-58.53-88.96,2.36-34.38,17.14-63.18,40.33-87.7,28.83-30.47,65.02-46.34,105.47-53.34,18.89-3.27,37.95-4.15,57.15-3.71C255.85,1.81,209.63-5.31,161.33,3.84,70.84,20.98,9.83,95.63,1.33,176.57c-5.78,55.07,7.16,104.66,42.03,147.79,2.06,2.54,5.15,4.77,8.21,5.84,27.6,9.68,56.08,13.35,85.22,12.1,26.37-1.13,51.54-7.12,74.69-20.2,37.86-21.4,64.31-52.46,74.9-95.63,7.97-32.46.6-61.24-24.53-83.9-6.55-5.91-14.78-9.92-21.8-14.52,20.01,6.32,37.53,17.4,50.05,35.58,15.91,23.1,18.27,48.81,11.49,75.25-13.48,52.56-47.18,87.79-95.12,109.66-33.08,15.09-68.13,17.8-103.83,14.28-7.18-.71-14.31-1.9-22.29-2.98,1.43,1.23,2.17,1.97,3,2.57,31.64,23.06,67.09,35.35,105.85,37.29,45.23,2.27,87.04-8.95,124.68-34.86,26.88-18.5,48-42.37,63.22-71.48,21.04-40.24,27.21-82.94,20.03-127.73ZM204.73,174.56c32.21,2.92,45.61,5.71,78.56,8.69-61.71,52.39-98.88,101.5-158.92,152.47-.4-.3,47.01-80.33,72.25-122.25-24.64-2.55-53.26-4.96-78.57-7.58,55.24-51.51,113.21-99.89,167.04-150.08.41.28-53.96,78.17-80.36,118.75Z"/>
</svg>